<svg width="42" height="42" viewBox="0 0 42 42" fill="none" xmlns="http://www.w3.org/2000/svg">
<circle cx="21" cy="21" r="21" fill="#EFF4FF"/>
<path d="M17.4999 20.5C18.5001 21 23.0006 21 23.0006 21C26.5006 20.0001 22.5006 22.5 23.0006 25C23.0006 25 17.5002 26.5 18.5 25C19.4998 23.5 16.4997 20 17.4999 20.5Z" fill="#C5CCD9"/>
<path fill-rule="evenodd" clip-rule="evenodd" d="M11 31.2727L11.2828 29.2929C11.6347 26.8297 13.7443 25 16.2326 25H25.91C28.2422 25 30.2646 26.6123 30.7843 28.8859L31.2369 30.866C28.546 33.4276 24.9047 35 20.8961 35C17.1043 35 13.641 33.593 11 31.2727Z" fill="#C5CCD9"/>
<rect x="16" y="11" width="10" height="12" rx="5" fill="#C5CCD9"/>
</svg>
